<?xml version="1.0" encoding="utf-8"?>
<!-- Generator: Adobe Illustrator 23.0.6, SVG Export Plug-In . SVG Version: 6.00 Build 0)  -->
<svg version="1.1" xmlns="http://www.w3.org/2000/svg" xmlns:xlink="http://www.w3.org/1999/xlink" x="0px" y="0px"
	 viewBox="0 0 720 576" style="enable-background:new 0 0 720 576;" xml:space="preserve">
<style type="text/css">
	.st0{fill:none;stroke:#C80000;stroke-width:0.5;stroke-linecap:round;stroke-linejoin:round;}
	.st1{fill:#244403;}
	.st2{font-family:'HelveticaNeue';}
	.st3{font-size:12.8px;}
	.st4{fill:none;stroke:#036D00;stroke-width:0.25;stroke-linecap:round;stroke-linejoin:round;}
	.st5{fill:#036D00;}
	.st6{font-size:4.3px;}
	.st7{font-size:21.3px;}
	.st8{fill:#234203;}
	.st9{fill:none;stroke:#036D00;stroke-width:0.5;stroke-linecap:round;stroke-linejoin:round;}
	.st10{font-size:8.5px;}
	.st11{font-family:'Helvetica';}
</style>
<g id="cut">
	<path class="st0" d="M391.8,263.4c-4.7,0-9.3,0-14,0c-2.1,0-3.8-1.7-3.8-3.8c0-1.5,0-2.9,0-4.4c0-5.6,2.2-11,6.2-14.9
		c4-4,9.3-6.2,14.9-6.2c92.6,0,185.2,0,277.8,0c5.6,0,11,2.2,14.9,6.2c4,4,6.2,9.3,6.2,14.9c0,16.8,0,33.5,0,50.3
		c0,5.6-2.2,11-6.2,14.9c-4,4-9.3,6.2-14.9,6.2c-92.6,0-185.2,0-277.8,0c-5.6,0-11-2.2-14.9-6.2c-4-4-6.2-9.3-6.2-14.9
		c0-1.5,0-2.9,0-4.4c0-2.1,1.7-3.8,3.8-3.8c4.7,0,9.3,0,14,0"/>
	<path class="st0" d="M675.8,355.9c0-2.3,1.9-4.3,4.3-4.3c2.3,0,4.3,1.9,4.3,4.3s-1.9,4.3-4.3,4.3
		C677.7,360.1,675.8,358.2,675.8,355.9z"/>
	<path class="st0" d="M694.1,413.3c0-16.8,0-33.5,0-50.3c0-5.6-2.2-11-6.2-14.9c-4-4-9.3-6.2-14.9-6.2c-92.6,0-185.2,0-277.8,0
		c-5.6,0-11,2.2-14.9,6.2c-4,4-6.2,9.3-6.2,14.9c0,16.8,0,33.5,0,50.3c0,5.6,2.2,11,6.2,14.9c4,4,9.3,6.2,14.9,6.2
		c92.6,0,185.2,0,277.8,0c5.6,0,11-2.2,14.9-6.2C691.8,424.3,694.1,418.9,694.1,413.3z"/>
	<path class="st0" d="M392.3,355.9c0-2.3-1.9-4.3-4.3-4.3s-4.3,1.9-4.3,4.3s1.9,4.3,4.3,4.3S392.3,358.2,392.3,355.9z"/>
	<polygon class="st0" points="156.9,368.3 117.2,368.3 117.2,371.1 114.9,371.1 114.9,379.9 117.2,379.9 117.2,396.4 114.9,396.4 
		114.9,405.1 117.2,405.1 117.2,408 156.9,408 156.9,405.1 159.2,405.1 159.2,396.4 156.9,396.4 156.9,379.9 159.2,379.9 
		159.2,371.1 156.9,371.1 	"/>
	<polygon class="st0" points="210.9,368.3 171.2,368.3 171.2,371.1 168.9,371.1 168.9,379.9 171.2,379.9 171.2,396.4 168.9,396.4 
		168.9,405.1 171.2,405.1 171.2,408 210.9,408 210.9,405.1 213.2,405.1 213.2,396.4 210.9,396.4 210.9,379.9 213.2,379.9 
		213.2,371.1 210.9,371.1 	"/>
	<polygon class="st0" points="264.9,368.3 225.2,368.3 225.2,371.1 222.9,371.1 222.9,379.9 225.2,379.9 225.2,396.4 222.9,396.4 
		222.9,405.1 225.2,405.1 225.2,408 264.9,408 264.9,405.1 267.2,405.1 267.2,396.4 264.9,396.4 264.9,379.9 267.2,379.9 
		267.2,371.1 264.9,371.1 	"/>
	<polygon class="st0" points="318.9,368.3 279.2,368.3 279.2,371.1 276.9,371.1 276.9,379.9 279.2,379.9 279.2,396.4 276.9,396.4 
		276.9,405.1 279.2,405.1 279.2,408 318.9,408 318.9,405.1 321.2,405.1 321.2,396.4 318.9,396.4 318.9,379.9 321.2,379.9 
		321.2,371.1 318.9,371.1 	"/>
	<path class="st0" d="M49.3,355.9c0-2.3-1.9-4.3-4.3-4.3s-4.3,1.9-4.3,4.3s1.9,4.3,4.3,4.3S49.3,358.2,49.3,355.9z"/>
	<path class="st0" d="M351.1,413.3c0-16.8,0-33.5,0-50.3c0-5.6-2.2-11-6.2-14.9c-4-4-9.3-6.2-14.9-6.2c-92.6,0-185.2,0-277.8,0
		c-5.6,0-11,2.2-14.9,6.2c-4,4-6.2,9.3-6.2,14.9c0,16.8,0,33.5,0,50.3c0,5.6,2.2,11,6.2,14.9c4,4,9.3,6.2,14.9,6.2
		c92.6,0,185.2,0,277.8,0c5.6,0,11-2.2,14.9-6.2C348.8,424.3,351.1,418.9,351.1,413.3z"/>
	<path class="st0" d="M332.8,355.9c0-2.3,1.9-4.3,4.3-4.3c2.3,0,4.3,1.9,4.3,4.3s-1.9,4.3-4.3,4.3
		C334.7,360.1,332.8,358.2,332.8,355.9z"/>
	<path class="st0" d="M49.3,420.4c0,2.3-1.9,4.3-4.3,4.3s-4.3-1.9-4.3-4.3s1.9-4.3,4.3-4.3S49.3,418,49.3,420.4z"/>
	<path class="st0" d="M332.8,420.4c0,2.3,1.9,4.3,4.3,4.3c2.3,0,4.3-1.9,4.3-4.3s-1.9-4.3-4.3-4.3
		C334.7,416.1,332.8,418,332.8,420.4z"/>
	<rect x="66" y="371.1" class="st0" width="34" height="34"/>
	<path class="st0" d="M327.1,364.5c-0.5,0-0.9,0.4-0.9,0.9c0,0.5,0.4,0.9,0.9,0.9s0.9-0.4,0.9-0.9
		C328,364.9,327.6,364.5,327.1,364.5z"/>
	<path class="st0" d="M327.1,409.9c-0.5,0-0.9,0.4-0.9,0.9c0,0.5,0.4,0.9,0.9,0.9s0.9-0.4,0.9-0.9
		C328,410.3,327.6,409.9,327.1,409.9z"/>
	<path class="st0" d="M55,409.9c-0.5,0-0.9,0.4-0.9,0.9c0,0.5,0.4,0.9,0.9,0.9s0.9-0.4,0.9-0.9C55.9,410.3,55.5,409.9,55,409.9z"/>
	<path class="st0" d="M55,364.5c-0.5,0-0.9,0.4-0.9,0.9c0,0.5,0.4,0.9,0.9,0.9s0.9-0.4,0.9-0.9C55.9,364.9,55.5,364.5,55,364.5z"/>
	<path class="st0" d="M675.8,97.7c0,2.3,1.9,4.3,4.3,4.3c2.3,0,4.3-1.9,4.3-4.3c0-2.3-1.9-4.3-4.3-4.3
		C677.7,93.5,675.8,95.4,675.8,97.7z"/>
	<path class="st0" d="M392.3,97.7c0,2.3-1.9,4.3-4.3,4.3s-4.3-1.9-4.3-4.3c0-2.3,1.9-4.3,4.3-4.3S392.3,95.4,392.3,97.7z"/>
	<path class="st0" d="M675.8,33.2c0-2.3,1.9-4.3,4.3-4.3c2.3,0,4.3,1.9,4.3,4.3s-1.9,4.3-4.3,4.3C677.7,37.5,675.8,35.6,675.8,33.2z
		"/>
	<path class="st0" d="M392.3,33.2c0-2.3-1.9-4.3-4.3-4.3s-4.3,1.9-4.3,4.3s1.9,4.3,4.3,4.3S392.3,35.6,392.3,33.2z"/>
	<path class="st0" d="M391.8,82.5c0,2.7,0,5.4,0,8.1c0,1.8,1.5,3.3,3.3,3.3c92.6,0,185.2,0,277.8,0c1.8,0,3.3-1.5,3.3-3.3
		c0-16.8,0-33.5,0-50.3c0-1.8-1.5-3.3-3.3-3.3c-92.6,0-185.2,0-277.8,0c-1.8,0-3.3,1.5-3.3,3.3c0,2.7,0,5.4,0,8.1"/>
	<path class="st0" d="M391.8,48.5c-4.7,0-9.3,0-14,0c-2.1,0-3.8-1.7-3.8-3.8c0-1.5,0-2.9,0-4.4c0-5.6,2.2-11,6.2-14.9
		c4-4,9.3-6.2,14.9-6.2c92.6,0,185.2,0,277.8,0c5.6,0,11,2.2,14.9,6.2c4,4,6.2,9.3,6.2,14.9c0,16.8,0,33.5,0,50.3
		c0,5.6-2.2,11-6.2,14.9c-4,4-9.3,6.2-14.9,6.2c-92.6,0-185.2,0-277.8,0c-5.6,0-11-2.2-14.9-6.2c-4-4-6.2-9.3-6.2-14.9
		c0-1.5,0-2.9,0-4.4c0-2.1,1.7-3.8,3.8-3.8c4.7,0,9.3,0,14,0"/>
	<ellipse transform="matrix(0.7071 -0.7071 0.7071 0.7071 -21.9751 77.9076)" class="st0" cx="83.1" cy="65.5" rx="9.6" ry="9.6"/>
	<path class="st0" d="M332.8,97.7c0,2.3,1.9,4.3,4.3,4.3c2.3,0,4.3-1.9,4.3-4.3c0-2.3-1.9-4.3-4.3-4.3
		C334.7,93.5,332.8,95.4,332.8,97.7z"/>
	<path class="st0" d="M49.3,97.7c0,2.3-1.9,4.3-4.3,4.3s-4.3-1.9-4.3-4.3c0-2.3,1.9-4.3,4.3-4.3S49.3,95.4,49.3,97.7z"/>
	<path class="st0" d="M332.8,33.2c0-2.3,1.9-4.3,4.3-4.3c2.3,0,4.3,1.9,4.3,4.3s-1.9,4.3-4.3,4.3C334.7,37.5,332.8,35.6,332.8,33.2z
		"/>
	<path class="st0" d="M351.1,90.6c0-16.8,0-33.5,0-50.3c0-5.6-2.2-11-6.2-14.9c-4-4-9.3-6.2-14.9-6.2c-92.6,0-185.2,0-277.8,0
		c-5.6,0-11,2.2-14.9,6.2c-4,4-6.2,9.3-6.2,14.9c0,16.8,0,33.5,0,50.3c0,5.6,2.2,11,6.2,14.9c4,4,9.3,6.2,14.9,6.2
		c92.6,0,185.2,0,277.8,0c5.6,0,11-2.2,14.9-6.2C348.8,101.6,351.1,96.2,351.1,90.6z"/>
	<path class="st0" d="M49.3,33.2c0-2.3-1.9-4.3-4.3-4.3s-4.3,1.9-4.3,4.3s1.9,4.3,4.3,4.3S49.3,35.6,49.3,33.2z"/>
	<path class="st0" d="M110.1,95.2c72,0,143.9,0,215.9,0c1.6,0,2.8-1.3,2.8-2.8c0-18,0-35.9,0-53.9c0-1.6-1.3-2.8-2.8-2.8
		c-72,0-143.9,0-215.9,0c-1.6,0-2.8,1.3-2.8,2.8c0,18,0,35.9,0,53.9C107.3,94,108.6,95.2,110.1,95.2z"/>
	<path class="st0" d="M675.8,205.9c0,2.3,1.9,4.3,4.3,4.3c2.3,0,4.3-1.9,4.3-4.3s-1.9-4.3-4.3-4.3
		C677.7,201.7,675.8,203.6,675.8,205.9z"/>
	<path class="st0" d="M392.3,205.9c0,2.3-1.9,4.3-4.3,4.3s-4.3-1.9-4.3-4.3s1.9-4.3,4.3-4.3S392.3,203.6,392.3,205.9z"/>
	<path class="st0" d="M675.8,141.4c0-2.3,1.9-4.3,4.3-4.3c2.3,0,4.3,1.9,4.3,4.3s-1.9,4.3-4.3,4.3
		C677.7,145.7,675.8,143.8,675.8,141.4z"/>
	<path class="st0" d="M392.3,141.4c0-2.3-1.9-4.3-4.3-4.3s-4.3,1.9-4.3,4.3s1.9,4.3,4.3,4.3S392.3,143.8,392.3,141.4z"/>
	<path class="st0" d="M391.8,190.7c0,2.7,0,5.4,0,8.1c0,1.8,1.5,3.3,3.3,3.3c92.6,0,185.2,0,277.8,0c1.8,0,3.3-1.5,3.3-3.3
		c0-16.8,0-33.5,0-50.3c0-1.8-1.5-3.3-3.3-3.3c-92.6,0-185.2,0-277.8,0c-1.8,0-3.3,1.5-3.3,3.3c0,2.7,0,5.4,0,8.1"/>
	<path class="st0" d="M391.8,156.7c-4.7,0-9.3,0-14,0c-2.1,0-3.8-1.7-3.8-3.8c0-1.5,0-2.9,0-4.4c0-5.6,2.2-11,6.2-14.9
		c4-4,9.3-6.2,14.9-6.2c92.6,0,185.2,0,277.8,0c5.6,0,11,2.2,14.9,6.2c4,4,6.2,9.3,6.2,14.9c0,16.8,0,33.5,0,50.3
		c0,5.6-2.2,11-6.2,14.9s-9.3,6.2-14.9,6.2c-92.6,0-185.2,0-277.8,0c-5.6,0-11-2.2-14.9-6.2c-4-4-6.2-9.3-6.2-14.9
		c0-1.5,0-2.9,0-4.4c0-2.1,1.7-3.8,3.8-3.8c4.7,0,9.3,0,14,0"/>
	<rect x="66" y="156.7" class="st0" width="34" height="34"/>
	<path class="st0" d="M110.1,203.5c72,0,143.9,0,215.9,0c1.6,0,2.8-1.3,2.8-2.8c0-18,0-35.9,0-53.9c0-1.6-1.3-2.8-2.8-2.8
		c-72,0-143.9,0-215.9,0c-1.6,0-2.8,1.3-2.8,2.8c0,18,0,35.9,0,53.9C107.3,202.2,108.6,203.5,110.1,203.5z"/>
	<path class="st0" d="M49.3,141.4c0-2.3-1.9-4.3-4.3-4.3s-4.3,1.9-4.3,4.3s1.9,4.3,4.3,4.3S49.3,143.8,49.3,141.4z"/>
	<path class="st0" d="M351.1,198.8c0-16.8,0-33.5,0-50.3c0-5.6-2.2-11-6.2-14.9c-4-4-9.3-6.2-14.9-6.2c-92.6,0-185.2,0-277.8,0
		c-5.6,0-11,2.2-14.9,6.2c-4,4-6.2,9.3-6.2,14.9c0,16.8,0,33.5,0,50.3c0,5.6,2.2,11,6.2,14.9c4,4,9.3,6.2,14.9,6.2
		c92.6,0,185.2,0,277.8,0c5.6,0,11-2.2,14.9-6.2C348.8,209.8,351.1,204.4,351.1,198.8z"/>
	<path class="st0" d="M332.8,141.4c0-2.3,1.9-4.3,4.3-4.3c2.3,0,4.3,1.9,4.3,4.3s-1.9,4.3-4.3,4.3
		C334.7,145.7,332.8,143.8,332.8,141.4z"/>
	<path class="st0" d="M49.3,205.9c0,2.3-1.9,4.3-4.3,4.3s-4.3-1.9-4.3-4.3s1.9-4.3,4.3-4.3S49.3,203.6,49.3,205.9z"/>
	<path class="st0" d="M332.8,205.9c0,2.3,1.9,4.3,4.3,4.3c2.3,0,4.3-1.9,4.3-4.3s-1.9-4.3-4.3-4.3
		C334.7,201.7,332.8,203.6,332.8,205.9z"/>
	<rect x="66" y="263.4" class="st0" width="34" height="34"/>
	<path class="st0" d="M110.1,310.2c72,0,143.9,0,215.9,0c1.6,0,2.8-1.3,2.8-2.8c0-18,0-35.9,0-53.9c0-1.6-1.3-2.8-2.8-2.8
		c-72,0-143.9,0-215.9,0c-1.6,0-2.8,1.3-2.8,2.8c0,18,0,35.9,0,53.9C107.3,308.9,108.6,310.2,110.1,310.2z"/>
	<path class="st0" d="M49.3,248.2c0-2.3-1.9-4.3-4.3-4.3s-4.3,1.9-4.3,4.3c0,2.3,1.9,4.3,4.3,4.3S49.3,250.5,49.3,248.2z"/>
	<path class="st0" d="M351.1,305.6c0-16.8,0-33.5,0-50.3c0-5.6-2.2-11-6.2-14.9c-4-4-9.3-6.2-14.9-6.2c-92.6,0-185.2,0-277.8,0
		c-5.6,0-11,2.2-14.9,6.2c-4,4-6.2,9.3-6.2,14.9c0,16.8,0,33.5,0,50.3c0,5.6,2.2,11,6.2,14.9c4,4,9.3,6.2,14.9,6.2
		c92.6,0,185.2,0,277.8,0c5.6,0,11-2.2,14.9-6.2C348.8,316.6,351.1,311.2,351.1,305.6z"/>
	<path class="st0" d="M332.8,248.2c0-2.3,1.9-4.3,4.3-4.3c2.3,0,4.3,1.9,4.3,4.3c0,2.3-1.9,4.3-4.3,4.3
		C334.7,252.4,332.8,250.5,332.8,248.2z"/>
	<path class="st0" d="M49.3,312.7c0,2.3-1.9,4.3-4.3,4.3s-4.3-1.9-4.3-4.3c0-2.3,1.9-4.3,4.3-4.3S49.3,310.3,49.3,312.7z"/>
	<path class="st0" d="M332.8,312.7c0,2.3,1.9,4.3,4.3,4.3c2.3,0,4.3-1.9,4.3-4.3c0-2.3-1.9-4.3-4.3-4.3
		C334.7,308.4,332.8,310.3,332.8,312.7z"/>
	<path class="st0" d="M675.8,312.7c0,2.3,1.9,4.3,4.3,4.3c2.3,0,4.3-1.9,4.3-4.3c0-2.3-1.9-4.3-4.3-4.3
		C677.7,308.4,675.8,310.3,675.8,312.7z"/>
	<path class="st0" d="M392.3,312.7c0,2.3-1.9,4.3-4.3,4.3s-4.3-1.9-4.3-4.3c0-2.3,1.9-4.3,4.3-4.3S392.3,310.3,392.3,312.7z"/>
	<path class="st0" d="M675.8,248.2c0-2.3,1.9-4.3,4.3-4.3c2.3,0,4.3,1.9,4.3,4.3c0,2.3-1.9,4.3-4.3,4.3
		C677.7,252.4,675.8,250.5,675.8,248.2z"/>
	<path class="st0" d="M392.3,248.2c0-2.3-1.9-4.3-4.3-4.3s-4.3,1.9-4.3,4.3c0,2.3,1.9,4.3,4.3,4.3S392.3,250.5,392.3,248.2z"/>
	<path class="st0" d="M391.8,297.4c0,2.7,0,5.4,0,8.1c0,1.8,1.5,3.3,3.3,3.3c92.6,0,185.2,0,277.8,0c1.8,0,3.3-1.5,3.3-3.3
		c0-16.8,0-33.5,0-50.3c0-1.8-1.5-3.3-3.3-3.3c-92.6,0-185.2,0-277.8,0c-1.8,0-3.3,1.5-3.3,3.3c0,2.7,0,5.4,0,8.1"/>
	<path class="st0" d="M675.8,420.4c0,2.3,1.9,4.3,4.3,4.3c2.3,0,4.3-1.9,4.3-4.3s-1.9-4.3-4.3-4.3
		C677.7,416.1,675.8,418,675.8,420.4z"/>
	<path class="st0" d="M392.3,420.4c0,2.3-1.9,4.3-4.3,4.3s-4.3-1.9-4.3-4.3s1.9-4.3,4.3-4.3S392.3,418,392.3,420.4z"/>
</g>
<g id="Layer_07">
	<g>
		<text transform="matrix(1 0 0 1 120.1874 72.5666)" class="st1 st2 st3">Top Layer</text>
	</g>
	<rect x="284.6" y="49.9" class="st4" width="28.3" height="28.3"/>
	<g>
		<text transform="matrix(1 0 0 1 288.9496 62.3618)" class="st5 st2 st6">1cm x 1cm</text>
		<text transform="matrix(1 0 0 1 287.7025 66.8972)" class="st5 st2 st6">sanity check</text>
	</g>
	<g>
		<text transform="matrix(1 0 0 1 403.6596 72.5666)" class="st1 st2 st3">Middle Layer USB</text>
	</g>
	<g>
		<text transform="matrix(1 0 0 1 403.6596 180.2829)" class="st1 st2 st3">Middle Layer USB</text>
	</g>
	<g>
		<text transform="matrix(1 0 0 1 403.6596 287.9997)" class="st1 st2 st3">Middle Layer USB</text>
	</g>
	<g>
		<text transform="matrix(1 0 0 1 383.8109 458.0783)" class="st1 st2 st3">Base Plate</text>
	</g>
	<g>
		<text transform="matrix(1 0 0 1 40.8176 458.0783)" class="st1 st2 st3">Switch Plate</text>
	</g>
	<g>
		<text transform="matrix(1 0 0 1 40.819 492.0942)" class="st2 st7">miniMacropad 1x5</text>
		<text transform="matrix(1 0 0 1 40.819 514.7712)" class="st8 st2 st7">Sandwich Case</text>
	</g>
	<rect class="st9" width="720" height="576"/>
	<g>
		<text transform="matrix(1 0 0 1 120.1874 177.4485)" class="st1 st2 st3">Spacing Layer</text>
	</g>
	<g>
		<text transform="matrix(1 0 0 1 120.1874 287.9997)" class="st1 st2 st3">Spacing Layer</text>
	</g>
	<g>
		<text transform="matrix(1 0 0 1 541.3852 488.1257)" class="st1 st2 st10">All layers designed to be 3mm thick,</text>
		<text transform="matrix(1 0 0 1 541.3852 497.1965)" class="st1 st2 st10">but the Base Plate may be made</text>
		<text transform="matrix(1 0 0 1 541.3852 506.2673)" class="st1 st11 st10">thicker </text>
		<text transform="matrix(1 0 0 1 566.7739 506.2673)" class="st1 st2 st10">(for weight) and the Switch Plate</text>
		<text transform="matrix(1 0 0 1 541.3852 515.3384)" class="st1 st11 st10">may </text>
		<text transform="matrix(1 0 0 1 558.4545 515.3384)" class="st1 st2 st10">be cut from 1.3-1.6mm material so</text>
		<text transform="matrix(1 0 0 1 541.3852 524.4092)" class="st1 st2 st10">the MX switches clip in securely</text>
		<text transform="matrix(1 0 0 1 654.4921 524.4092)" class="st1 st11 st10"> </text>
		<text transform="matrix(1 0 0 1 656.6796 524.4092)" class="st1 st2 st10">(thicker</text>
		<text transform="matrix(1 0 0 1 541.3852 533.48)" class="st1 st11 st10">material may require a bit </text>
		<text transform="matrix(1 0 0 1 632.4018 533.48)" class="st1 st2 st10">of glue. There</text>
		<text transform="matrix(1 0 0 1 541.3852 542.5508)" class="st1 st11 st10">are pilot holes for self-tapping screws to</text>
		<text transform="matrix(1 0 0 1 541.3852 551.6216)" class="st1 st11 st10">Secure the PCB to the plate. </text>
	</g>
</g>
</svg>
